<?xml version="1.0" standalone="no"?>
<!DOCTYPE svg PUBLIC "-//W3C//DTD SVG 20010904//EN"
 "http://www.w3.org/TR/2001/REC-SVG-20010904/DTD/svg10.dtd">
<svg version="1.0" xmlns="http://www.w3.org/2000/svg"
 width="768.000000pt" height="768.000000pt" viewBox="0 0 768.000000 768.000000"
 preserveAspectRatio="xMidYMid meet">
<metadata>
Created by potrace 1.14, written by Peter Selinger 2001-2017
</metadata>
<g transform="translate(0.000000,768.000000) scale(0.100000,-0.100000)"
fill="#000000" stroke="none">
<path d="M1789 6700 c-343 -72 -614 -376 -646 -725 -4 -38 -7 -436 -7 -882 l0
-813 -36 -6 c-222 -37 -406 -144 -530 -308 -82 -108 -154 -276 -176 -411 -11
-70 -13 -117 -15 -452 l-1 -353 -82 -1 c-44 0 -92 -3 -105 -5 -75 -14 -153
-85 -180 -163 -8 -24 -11 -234 -10 -730 0 -781 -3 -745 74 -823 72 -71 15 -68
1196 -68 1029 0 1059 1 1103 20 57 24 103 70 129 129 18 42 20 68 21 395 l1
351 2170 2 c1962 1 2240 3 2325 17 52 8 177 58 249 99 81 46 216 171 267 248
45 66 93 172 117 258 l22 76 2 1705 c3 1805 3 1762 -42 1897 -72 212 -234 392
-439 488 -33 15 -64 28 -70 30 -6 1 -18 5 -26 9 -8 3 -49 13 -90 21 -65 12
-429 14 -2605 14 -2407 0 -2534 -1 -2616 -19z m5177 -242 c6 -4 21 -9 35 -11
177 -33 362 -221 416 -423 4 -16 9 -787 10 -1714 2 -1471 1 -1693 -12 -1749
-9 -35 -19 -69 -23 -75 -3 -6 -7 -13 -8 -16 -3 -17 -26 -62 -48 -94 -91 -134
-214 -218 -371 -254 -16 -4 -1022 -7 -2235 -7 l-2205 0 -1 220 c-1 199 -3 225
-21 265 -48 106 -113 143 -258 148 l-100 4 -1 351 c-1 338 -6 446 -25 495 -5
12 -6 22 -4 22 3 0 -7 33 -21 73 -121 344 -347 533 -704 586 -9 2 -4 1675 5
1711 5 19 9 37 10 40 13 51 28 90 35 95 6 4 8 10 5 15 -3 5 -1 11 5 15 5 3 16
20 25 38 46 96 220 229 330 252 14 3 37 8 52 11 15 3 29 6 30 8 6 6 5069 0
5079 -6z m-5830 -3073 l-1 -635 -253 0 -254 0 4 388 c3 330 6 393 21 430 9 23
16 43 16 45 -2 16 59 146 84 180 49 65 134 139 193 167 63 31 132 55 170 58
l20 1 0 -634z m345 615 c73 -22 158 -71 213 -121 45 -40 115 -145 144 -214 49
-118 54 -168 56 -540 1 -192 0 -356 -2 -362 -3 -10 -63 -13 -252 -13 -190 0
-249 3 -252 13 -3 10 -2 1142 1 1230 1 32 9 33 92 7z m-321 -1509 c3 0 6 -9 7
-19 6 -75 124 -282 209 -366 50 -50 148 -126 160 -126 4 0 15 -6 23 -13 17
-14 123 -61 164 -72 4 -2 8 -3 10 -5 20 -16 177 -30 350 -30 186 -1 187 -1
188 -23 1 -29 1 -565 0 -597 l-1 -26 -1010 0 -1010 0 0 641 0 640 453 -1 c248
-1 454 -2 457 -3z m1111 -16 c0 -11 1 -96 1 -190 l1 -170 -187 -1 c-206 -1
-273 9 -366 53 -111 53 -208 145 -264 252 -19 37 -34 70 -31 72 2 3 193 4 424
4 415 0 421 0 422 -20z"/>
<path d="M1955 5964 c-53 -29 -71 -55 -85 -127 -5 -23 -3 -40 3 -44 6 -4 40
-7 76 -7 l66 -1 3 -57 3 -58 38 0 37 0 0 58 c-1 61 -4 57 57 61 10 1 17 9 17
20 0 15 -7 18 -37 17 l-38 -1 0 75 0 75 -55 2 c-36 2 -66 -3 -85 -13z"/>
<path d="M2707 5973 c-4 -3 -7 -73 -7 -154 l0 -148 227 2 228 2 0 153 0 152
-221 0 c-121 0 -224 -3 -227 -7z"/>
<path d="M3459 5933 c-1 -26 -1 -52 0 -57 1 -6 0 -20 -3 -32 -5 -17 -12 -21
-35 -18 -20 2 -31 -2 -35 -13 -9 -22 -1 -27 39 -25 28 2 35 -1 33 -15 0 -10 0
-37 0 -60 2 -42 3 -43 37 -43 37 0 36 -3 39 75 l1 40 60 2 c33 0 67 2 77 2 22
1 17 69 -9 113 -30 51 -64 70 -137 75 l-66 5 -1 -49z"/>
<path d="M1869 5598 c-1 -48 -1 -119 0 -161 l1 -34 150 0 150 0 0 114 c0 83
-3 113 -12 114 -7 1 -75 2 -151 3 l-137 1 -1 -37z"/>
<path d="M3494 5481 c-2 -2 -27 -3 -56 -2 l-53 1 -2 -115 -2 -115 153 0 152 0
0 114 0 114 -30 1 c-17 0 -60 2 -94 3 -35 2 -66 1 -68 -1z"/>
<path d="M2402 5213 c-9 -4 -7 -291 2 -301 4 -4 106 -7 227 -7 l219 -1 1 31
c3 141 0 270 -7 272 -11 4 -432 9 -442 6z"/>
<path d="M2019 5173 c-1 -21 -1 -45 0 -54 2 -21 -20 -27 -93 -24 l-57 3 2 -47
c3 -53 31 -102 72 -126 34 -20 146 -29 148 -12 1 7 3 37 4 67 3 81 3 82 28 80
39 -4 47 0 47 19 0 15 -6 18 -30 16 -39 -3 -48 10 -45 68 l3 47 -39 0 c-38 0
-39 -1 -40 -37z"/>
<path d="M3459 5183 c-1 -15 0 -42 1 -59 1 -30 0 -31 -35 -29 -24 2 -38 -2
-42 -12 -8 -19 0 -24 39 -26 l33 -2 0 -76 0 -76 55 2 c74 1 113 19 145 65 28
41 42 119 21 122 -6 0 -36 2 -66 3 -30 1 -60 3 -66 4 -5 0 -10 24 -10 54 l0
52 -37 3 c-34 3 -37 1 -38 -25z"/>
</g>
</svg>
